<?xml version="1.0" encoding="utf-8"?>
<!-- Generator: Adobe Illustrator 16.0.0, SVG Export Plug-In . SVG Version: 6.00 Build 0)  -->
<!DOCTYPE svg PUBLIC "-//W3C//DTD SVG 1.1//EN" "http://www.w3.org/Graphics/SVG/1.1/DTD/svg11.dtd">
<svg version="1.1" id="Layer_1" xmlns="http://www.w3.org/2000/svg" xmlns:xlink="http://www.w3.org/1999/xlink" x="0px" y="0px"
	 width="200px" height="200px" viewBox="0 0 200 200" enable-background="new 0 0 200 200" xml:space="preserve">
<g>
	<defs>
		<rect id="SVGID_1_" y="0.5" width="200" height="200"/>
	</defs>
	<clipPath id="SVGID_2_">
		<use xlink:href="#SVGID_1_"  overflow="visible"/>
	</clipPath>
	<g clip-path="url(#SVGID_2_)">
		<g>
			<path fill="#4B9FDE" d="M95.935,94.492C95.977,94.267,96,94.047,96,93.837V51.084C96,49.365,94.496,49,92.778,49H86.67
				C84.952,49,83,49.365,83,51.084V85H62.239C60.521,85,58,86.012,58,87.73v6.107C58,95.556,60.521,98,62.239,98H92.46
				C93.565,96.78,94.729,95.614,95.935,94.492z"/>
			<path fill="#4B9FDE" d="M77.535,136.224c-25.771-3.021-45.833-24.977-45.833-51.548c0-28.63,23.286-51.922,51.915-51.922
				c26.716,0,48.771,20.246,51.602,46.246c0.015,0,0.028,0,0.043,0c7.644,0,14.934,1.505,21.61,4.203
				c-0.785-39.784-33.284-71.822-73.255-71.822c-40.463,0-73.292,32.831-73.292,73.293c0,39.767,31.716,72.138,71.218,73.24
				c-2.585-6.555-4.021-13.688-4.021-21.162C77.521,136.575,77.533,136.4,77.535,136.224z"/>
		</g>
		<g>
			<path fill="#4B9FDE" d="M189.855,148.542c0,0.96-0.768,2.111-1.791,2.303l-11.824,1.789c-0.701,2.045-1.47,3.962-2.491,5.816
				c2.172,3.131,4.474,5.945,6.839,8.821c0.383,0.446,0.639,1.021,0.639,1.597c0,0.575-0.19,1.022-0.575,1.47
				c-1.534,2.046-10.163,11.441-12.335,11.441c-0.576,0-1.15-0.256-1.663-0.574l-8.82-6.902c-1.852,0.957-3.834,1.788-5.814,2.428
				c-0.448,3.898-0.833,8.052-1.854,11.888c-0.257,1.021-1.15,1.789-2.3,1.789h-14.191c-1.15,0-2.173-0.831-2.301-1.917l-1.79-11.76
				c-1.979-0.64-3.897-1.407-5.751-2.365l-9.014,6.84c-0.446,0.383-1.02,0.574-1.597,0.574c-0.575,0-1.149-0.256-1.597-0.702
				c-3.389-3.069-7.862-7.033-10.547-10.739c-0.319-0.447-0.447-0.958-0.447-1.47c0-0.576,0.19-1.022,0.51-1.469
				c2.174-2.94,4.538-5.753,6.711-8.756c-1.087-2.048-1.981-4.157-2.62-6.328l-11.696-1.727c-1.087-0.191-1.854-1.215-1.854-2.301
				v-14.188c0-0.961,0.767-2.111,1.726-2.301l11.887-1.791c0.64-2.044,1.47-3.963,2.493-5.881c-2.174-3.067-4.474-5.943-6.839-8.82
				c-0.384-0.446-0.639-0.957-0.639-1.534c0-0.574,0.255-1.021,0.575-1.469c1.534-2.108,10.164-11.442,12.335-11.442
				c0.577,0,1.15,0.258,1.662,0.64l8.821,6.839c1.852-0.957,3.834-1.789,5.814-2.428c0.448-3.898,0.832-8.053,1.854-11.889
				c0.257-1.021,1.15-1.789,2.301-1.789h14.191c1.149,0,2.171,0.831,2.3,1.917l1.79,11.76c1.979,0.639,3.896,1.406,5.751,2.363
				l9.077-6.838c0.383-0.383,0.957-0.576,1.533-0.576c0.575,0,1.15,0.258,1.596,0.64c3.387,3.133,7.864,7.096,10.548,10.866
				c0.319,0.385,0.447,0.895,0.447,1.405c0,0.577-0.191,1.023-0.512,1.47c-2.173,2.941-4.537,5.754-6.71,8.757
				c1.085,2.046,1.981,4.155,2.621,6.264l11.694,1.79c1.087,0.191,1.854,1.215,1.854,2.301V148.542z M140.768,124.958
				c-9.01,0-16.361,7.352-16.361,16.364c0,9.012,7.352,16.362,16.361,16.362c9.014,0,16.364-7.351,16.364-16.362
				C157.132,132.31,149.781,124.958,140.768,124.958z"/>
		</g>
	</g>
</g>
</svg>
