<?xml version="1.0" encoding="utf-8"?>
<!-- Generator: Adobe Illustrator 16.0.0, SVG Export Plug-In . SVG Version: 6.00 Build 0)  -->
<!DOCTYPE svg PUBLIC "-//W3C//DTD SVG 1.1//EN" "http://www.w3.org/Graphics/SVG/1.1/DTD/svg11.dtd">
<svg version="1.1" id="Layer_12" xmlns="http://www.w3.org/2000/svg" xmlns:xlink="http://www.w3.org/1999/xlink" x="0px" y="0px"
	 width="49.994px" height="88.995px" viewBox="0 0 49.994 88.995" enable-background="new 0 0 49.994 88.995" xml:space="preserve">
<g>
	<g>
		<rect x="0.005" y="36.995" fill="#666666" width="3" height="2"/>
		<rect x="3.999" y="36.995" fill="#666666" width="8.998" height="2"/>
		<rect x="0.005" y="40.994" fill="#666666" width="3" height="2"/>
		<rect x="3.999" y="40.994" fill="#666666" width="8.998" height="2"/>
		<rect x="0.005" y="44.994" fill="#666666" width="3" height="2"/>
		<rect x="3.999" y="44.994" fill="#666666" width="8.998" height="2"/>
	</g>
	<g>
		<rect x="13.054" y="36.995" fill="#FFFFFF" width="3" height="2"/>
		<rect x="17.048" y="36.995" fill="#FFFFFF" width="8.998" height="2"/>
		<rect x="13.054" y="40.994" fill="#FFFFFF" width="3" height="2"/>
		<rect x="17.048" y="40.994" fill="#FFFFFF" width="8.998" height="2"/>
		<rect x="13.054" y="44.994" fill="#FFFFFF" width="3" height="2"/>
		<rect x="17.048" y="44.994" fill="#FFFFFF" width="8.998" height="2"/>
	</g>
	<g>
		<path fill="#666666" d="M7.999,31.996c0,0.552-0.448,1-1,1l0,0c-0.552,0-1-0.448-1-1V19.997c0-0.552,0.448-1,1-1l0,0
			c0.552,0,1,0.448,1,1V31.996z"/>
		<path fill="#666666" d="M1.062,26.997c-0.552,0-1-0.448-1-1l0,0c0-0.552,0.448-1,1-1h11.999c0.552,0,1,0.448,1,1l0,0
			c0,0.553-0.448,1-1,1H1.062z"/>
	</g>
	<g>
		<path fill="#FFFFFF" d="M21.998,31.996c0,0.552-0.448,1-1,1l0,0c-0.552,0-1-0.448-1-1V19.997c0-0.552,0.448-1,1-1l0,0
			c0.552,0,1,0.448,1,1V31.996z"/>
		<path fill="#FFFFFF" d="M15.06,26.997c-0.552,0-1-0.448-1-1l0,0c0-0.552,0.448-1,1-1h12c0.551,0,0.999,0.448,0.999,1l0,0
			c0,0.553-0.448,1-0.999,1H15.06z"/>
	</g>
	<g>
		<path fill="#0094DA" d="M35.935,31.996c0,0.552-0.447,1-1,1l0,0c-0.552,0-1-0.448-1-1V19.997c0-0.552,0.448-1,1-1l0,0
			c0.553,0,1,0.448,1,1V31.996z"/>
		<path fill="#0094DA" d="M28.997,26.997c-0.552,0-1-0.448-1-1l0,0c0-0.552,0.448-1,1-1h11.999c0.552,0,0.999,0.448,0.999,1l0,0
			c0,0.553-0.447,1-0.999,1H28.997z"/>
	</g>
	<g>
		
			<rect x="4.408" y="63.639" transform="matrix(0.7115 -0.7027 0.7027 0.7115 -47.823 23.666)" fill="#666666" width="1.001" height="12.866"/>
		
			<rect x="4.448" y="63.472" transform="matrix(0.7027 0.7115 -0.7115 0.7027 51.2071 17.2615)" fill="#666666" width="1.001" height="12.866"/>
	</g>
	<g>
		
			<rect x="14.173" y="63.639" transform="matrix(0.7115 -0.7027 0.7027 0.7115 -45.0057 30.5276)" fill="#E47885" width="1.001" height="12.866"/>
		
			<rect x="14.213" y="63.472" transform="matrix(0.7027 0.7115 -0.7115 0.7027 54.1101 10.3141)" fill="#E47885" width="1.001" height="12.866"/>
	</g>
	<g>
		
			<rect x="23.938" y="63.639" transform="matrix(0.712 -0.7022 0.7022 0.712 -42.166 37.3437)" fill="#FFFFFF" width="1.001" height="12.865"/>
		
			<rect x="23.977" y="63.472" transform="matrix(0.7027 0.7115 -0.7115 0.7027 57.0131 3.3669)" fill="#FFFFFF" width="1.001" height="12.865"/>
	</g>
	<g>
		<rect x="4.5" y="50.993" fill="#666666" width="2" height="12"/>
		<rect y="55.993" fill="#666666" width="12" height="2"/>
	</g>
	<g>
		<rect x="16" y="50.993" fill="#FFFFFF" width="2" height="12"/>
		<rect x="10.999" y="55.993" fill="#FFFFFF" width="12" height="2"/>
	</g>
	<g>
		<rect y="82.667" fill="#e47885" width="11" height="2"/>
	</g>
	<g>
		<rect x="10.999" y="82.667" fill="#FFFFFF" width="11" height="2"/>
	</g>
	<g>
		<rect fill="#666666" width="8.997" height="1.96"/>
		<rect y="3.011" fill="#666666" width="8.997" height="1.969"/>
		<rect y="6.011" fill="#666666" width="8.997" height="1.988"/>
		<rect y="8.995" fill="#666666" width="8.997" height="0.984"/>
		<rect y="10.995" fill="#666666" width="8.997" height="1.984"/>
		<rect y="13.979" fill="#666666" width="8.997" height="1"/>
		<path fill="#666666" d="M11.981,1.96c0,0,0.099-1.036,1.099-0.98s10,0,10,0s1.792,0.431,1.917,3.015c0,0-0.163,2.52-3.061,3.01
			l0.061,2.975c0,0,2.25,3.234,2,4.5c0,0-0.705,1.771-2.061,1.519c0,0-1.23,0.248-1.939-1.794l-3.042-7.199h-3.917
			c0,0-1.042-0.395-1.042-0.994L11.981,1.96z"/>
	</g>
	<g>
		<rect x="24.997" fill="#0094DA" width="8.997" height="1.96"/>
		<rect x="24.997" y="3.011" fill="#0094DA" width="8.997" height="1.969"/>
		<rect x="24.997" y="6.011" fill="#0094DA" width="8.997" height="1.988"/>
		<rect x="24.997" y="8.995" fill="#0094DA" width="8.997" height="0.984"/>
		<rect x="24.997" y="10.995" fill="#0094DA" width="8.997" height="1.984"/>
		<rect x="24.997" y="13.979" fill="#0094DA" width="8.997" height="1"/>
		<path fill="#0094DA" d="M36.979,1.96c0,0,0.099-1.036,1.099-0.98s10,0,10,0s1.792,0.431,1.917,3.015c0,0-0.163,2.52-3.061,3.01
			l0.062,2.975c0,0,2.249,3.234,1.999,4.5c0,0-0.704,1.771-2.061,1.519c0,0-1.229,0.248-1.938-1.794l-3.043-7.199h-3.916
			c0,0-1.042-0.395-1.042-0.994L36.979,1.96z"/>
	</g>
</g>
</svg>
